<svg width="41" height="192" viewBox="0 0 41 192" fill="none" xmlns="http://www.w3.org/2000/svg">
<rect x="1.5" y="1.5" width="38" height="189" rx="16.5" fill="#67B9D3" stroke="#433650" stroke-width="3"/>
<path d="M17.75 173.037C17.75 175.453 15.7912 177.412 13.375 177.412C10.9588 177.412 9 175.453 9 173.037L9 146.532C9 144.116 10.9588 142.157 13.375 142.157C15.7912 142.157 17.75 144.116 17.75 146.532L17.75 173.037Z" fill="white"/>
<path d="M17.75 134.255C17.75 136.605 15.845 138.51 13.4951 138.51H13.2549C10.905 138.51 9 136.605 9 134.255C9 131.905 10.905 130 13.2549 130H13.4951C15.845 130 17.75 131.905 17.75 134.255Z" fill="white"/>
</svg>
