<svg width="63" height="63" viewBox="0 0 63 63" fill="none" xmlns="http://www.w3.org/2000/svg">
<path d="M19.926 54.7894L19.927 54.7899C23.4059 56.5228 27.3308 57.5 31.5 57.5C45.8593 57.5 57.5 45.8593 57.5 31.5C57.5 17.1406 45.8593 5.5 31.5 5.5C17.1406 5.5 5.5 17.1406 5.5 31.5C5.5 35.669 6.47713 39.5938 8.20995 43.0731L19.926 54.7894ZM19.926 54.7894C17.7698 53.7159 15.1121 53.2631 12.4365 53.979C12.4364 53.979 12.4364 53.9791 12.4363 53.9791L7.77335 55.2267L9.02099 50.5636M19.926 54.7894L9.02099 50.5636M9.02099 50.5636L9.02104 50.5634C9.73686 47.8882 9.28441 45.2303 8.21008 43.0734L9.02099 50.5636Z" fill="#433650" stroke="#433650" stroke-width="11"/>
<path d="M18.84 31.144C18.84 30.164 19.148 29.338 19.764 28.666C20.408 27.994 21.262 27.658 22.326 27.658C23.39 27.658 24.23 27.994 24.846 28.666C25.462 29.338 25.77 30.164 25.77 31.144C25.77 32.124 25.462 32.964 24.846 33.664C24.23 34.336 23.39 34.672 22.326 34.672C21.262 34.672 20.408 34.336 19.764 33.664C19.148 32.964 18.84 32.124 18.84 31.144ZM27.7814 31.144C27.7814 30.164 28.0894 29.338 28.7054 28.666C29.3494 27.994 30.2034 27.658 31.2674 27.658C32.3314 27.658 33.1714 27.994 33.7874 28.666C34.4034 29.338 34.7114 30.164 34.7114 31.144C34.7114 32.124 34.4034 32.964 33.7874 33.664C33.1714 34.336 32.3314 34.672 31.2674 34.672C30.2034 34.672 29.3494 34.336 28.7054 33.664C28.0894 32.964 27.7814 32.124 27.7814 31.144ZM36.7228 31.144C36.7228 30.164 37.0308 29.338 37.6468 28.666C38.2908 27.994 39.1448 27.658 40.2088 27.658C41.2728 27.658 42.1128 27.994 42.7288 28.666C43.3448 29.338 43.6528 30.164 43.6528 31.144C43.6528 32.124 43.3448 32.964 42.7288 33.664C42.1128 34.336 41.2728 34.672 40.2088 34.672C39.1448 34.672 38.2908 34.336 37.6468 33.664C37.0308 32.964 36.7228 32.124 36.7228 31.144Z" fill="#D9D9D9"/>
</svg>
