<svg width="68" height="68" viewBox="0 0 68 68" fill="none" xmlns="http://www.w3.org/2000/svg">
<rect x="20.6431" y="20.6428" width="25.5" height="26.7143" fill="#D9D9D9"/>
<path d="M33.9998 5.66663C18.3882 5.66663 5.6665 18.3883 5.6665 34C5.6665 49.6116 18.3882 62.3333 33.9998 62.3333C49.6115 62.3333 62.3332 49.6116 62.3332 34C62.3332 18.3883 49.6115 5.66663 33.9998 5.66663ZM43.5198 40.5166C44.3415 41.3383 44.3415 42.6983 43.5198 43.52C43.0948 43.945 42.5565 44.1433 42.0182 44.1433C41.4798 44.1433 40.9415 43.945 40.5165 43.52L33.9998 37.0033L27.4832 43.52C27.0582 43.945 26.5198 44.1433 25.9815 44.1433C25.4432 44.1433 24.9048 43.945 24.4798 43.52C23.6582 42.6983 23.6582 41.3383 24.4798 40.5166L30.9965 34L24.4798 27.4833C23.6582 26.6616 23.6582 25.3016 24.4798 24.48C25.3015 23.6583 26.6615 23.6583 27.4832 24.48L33.9998 30.9966L40.5165 24.48C41.3382 23.6583 42.6982 23.6583 43.5198 24.48C44.3415 25.3016 44.3415 26.6616 43.5198 27.4833L37.0032 34L43.5198 40.5166Z" fill="#433650"/>
</svg>
