<svg width="38" height="38" viewBox="0 0 38 38" fill="none" xmlns="http://www.w3.org/2000/svg">
<path d="M19.0002 6.33329H9.50016C7.75126 6.33329 6.3335 7.75105 6.3335 9.49996V28.5C6.3335 30.2488 7.75126 31.6667 9.50016 31.6667H28.5002C30.2491 31.6667 31.6668 30.2488 31.6668 28.5V19M29.156 13.3224L30.8752 11.6033C32.1117 10.3667 32.1117 8.36165 30.8752 7.125C29.6384 5.88834 27.6334 5.88834 26.3967 7.12502L24.6777 8.84411M29.156 13.3224L19.5985 22.88C19.1564 23.322 18.5934 23.6235 17.9805 23.746L13.3227 24.6775L14.2542 20.0198C14.3768 19.4068 14.6782 18.8437 15.1202 18.4017L24.6777 8.84411M29.156 13.3224L24.6777 8.84411" stroke="#433650" stroke-width="4" stroke-linecap="round" stroke-linejoin="round"/>
</svg>
