<svg width="845" height="255" viewBox="0 0 845 255" fill="none" xmlns="http://www.w3.org/2000/svg">
<path d="M439.155 1.11904C436.999 1.68541 433.823 3.15802 432.121 4.40407C425.769 9.04842 423.84 13.3529 419.87 33.1764C419.189 36.9145 417.828 43.258 417.034 47.336C416.24 51.4139 414.992 57.7574 414.198 61.4956C413.517 65.2337 412.27 71.5772 411.362 75.6552C410.568 79.7331 409.32 85.8501 408.639 89.2484C406.144 102.275 403.648 113.716 402.741 115.529C402.173 116.548 398.203 119.04 393.779 121.192C385.498 125.157 384.25 127.196 389.014 129.575C390.376 130.255 393.098 132.18 394.913 133.879C398.657 137.165 399.224 141.242 397.069 148.152C395.707 152.683 394.573 157.894 392.758 168.542C392.077 172.62 391.056 177.944 390.489 180.436C389.922 182.928 388.901 188.479 388.22 192.897C385.044 212.833 395.821 232.544 414.879 241.719C422.252 245.231 423.84 245.57 433.029 245.57C444.373 245.57 450.045 243.985 458.78 238.321C466.494 233.45 471.598 227.446 475.909 218.384C479.086 211.587 479.426 210.115 479.426 198.561C479.426 191.651 478.745 180.21 478.065 173.073C475.909 153.25 475.455 136.825 477.157 136.825C479.086 136.825 480.674 139.543 487.934 154.949C491.224 162.085 497.349 174.886 501.32 183.268C511.302 204.224 515.159 212.72 515.159 214.079C515.159 217.478 522.079 228.239 527.638 233.563C539.435 244.778 553.162 249.082 568.136 246.25C572.446 245.457 578.459 243.531 581.408 242.172C588.441 238.547 598.311 228.126 602.168 219.97C605.004 214.079 605.344 212.04 605.344 201.959C605.344 192.557 604.777 188.819 602.054 180.436C600.239 174.772 597.517 166.163 596.042 161.179C594.454 156.195 592.525 149.965 591.618 147.246C590.71 144.641 590.029 141.696 590.029 140.903C590.029 137.957 576.53 128.895 572.106 128.895C570.404 128.895 569.27 125.044 570.858 124.477C573.581 123.571 580.954 116.095 580.954 114.169C580.954 113.15 579.933 108.959 578.686 104.994C577.438 101.029 575.623 94.9122 574.602 91.5139C573.467 88.1156 571.539 81.6589 570.178 77.3543C568.816 72.9365 566.207 64.7806 564.506 59.23C562.804 53.5662 560.762 46.9961 559.968 44.504C559.174 42.012 557.132 35.3286 555.43 29.7781C549.645 10.8608 546.922 7.68909 536.146 7.68909C528.432 7.68909 523.667 10.521 521.172 16.5247C519.697 19.923 517.768 49.375 517.428 72.4834C517.428 74.2959 516.974 75.6552 516.407 75.6552C515.5 75.6552 502.681 59.9097 473.867 23.208C460.141 5.76337 456.738 2.70491 449.364 1.00575C443.465 -0.353559 444.26 -0.353559 439.155 1.11904Z" fill="#433650"/>
<path d="M49.2627 7.80237C47.2208 8.36874 43.8176 10.6343 41.6623 12.7865C37.0112 17.4309 34.7425 24.5673 30.7721 47.336C29.6377 53.6795 27.4823 64.6673 26.2345 69.9913C25.1001 75.0888 22.8313 86.0767 21.6969 92.6467C17.6131 115.982 17.9534 115.076 9.1051 120.513C5.58847 122.665 2.07184 124.364 1.3912 124.364C-1.44479 124.364 0.370244 128.555 4.00031 130.481C6.15567 131.614 9.1051 133.766 10.4664 135.239C13.1889 138.184 13.3024 136.598 8.65134 158.347C7.74382 162.425 6.72286 167.523 6.38254 169.675C6.04223 171.827 5.24815 176.245 4.79439 179.53C4.22719 182.815 3.0928 187.346 2.41216 189.612C1.61808 191.991 0.937443 199.24 0.937443 205.81C0.937443 216.685 1.27776 218.497 4.22719 224.614C8.19758 232.997 19.2012 244.211 26.2345 247.156C29.0705 248.289 32.2468 249.648 33.2677 250.215C36.2172 251.687 55.0481 251.461 60.3798 249.762C67.8668 247.496 79.4377 238.887 84.0887 232.091C91.8026 220.876 92.4832 217.591 91.6891 192.897L91.0085 171.148L105.983 170.468C114.264 170.015 122.545 169.222 124.36 168.655C126.288 168.089 129.805 166.956 132.301 166.277C146.254 162.085 162.929 151.098 169.622 141.696C172.231 137.957 172.685 136.598 171.664 135.352C168.828 131.954 173.366 132.067 177.45 135.465C178.584 136.485 179.378 138.75 179.378 141.129C179.378 148.605 183.916 171.148 186.978 179.303C199.911 213.513 221.691 236.395 253.568 249.422C255.95 250.441 258.786 251.234 259.807 251.234C260.828 251.234 263.096 252.027 264.911 252.933C267.407 254.293 272.398 254.633 286.692 254.633C296.901 254.633 306.204 254.179 307.338 253.613C308.359 253.047 312.102 251.687 315.506 250.668C331.954 245.684 351.92 232.544 363.264 219.404C367.801 214.079 380.166 195.615 380.166 194.029C380.166 193.803 381.414 190.858 382.889 187.573C386.746 178.964 389.241 171.714 389.241 168.882C389.241 167.523 390.035 165.71 390.943 164.804C392.077 163.558 392.531 159.82 392.758 150.531C392.985 136.032 392.645 135.352 383.456 131.048C380.393 129.462 377.897 127.649 377.897 126.63C378.011 125.724 380.847 123.118 384.25 120.966C390.716 116.888 392.531 113.716 390.489 109.865C389.809 108.505 389.241 106.24 389.241 104.767C389.241 100.236 380.28 79.1668 374.154 69.425C370.978 64.4408 366.1 57.6442 363.264 54.2459C353.168 42.5784 335.925 30.571 320.61 24.6806C300.758 16.9778 272.512 16.9778 252.547 24.6806C226.796 34.5357 206.036 54.1326 192.537 81.4323C189.134 88.1156 186.184 93.3264 185.731 92.9865C185.39 92.5334 185.05 89.1351 185.05 85.1704C185.05 78.7137 183.802 72.0303 180.399 59.2301C175.521 41.4456 163.27 25.1337 150.111 19.0168C139.22 13.9193 135.59 13.2397 121.183 13.6928C105.642 14.1459 100.991 15.1654 89.08 20.7159C80.0049 24.9072 80.0049 24.9072 76.2614 17.6575C73.0851 11.3139 67.0727 7.5758 59.5857 7.00943C55.8422 6.78286 51.1912 7.12271 49.2627 7.80237ZM299.17 46.8829C310.628 50.1679 319.816 57.984 326.055 69.425C329.459 75.7685 329.572 95.7052 326.169 101.709C322.425 108.392 318.568 113.037 314.938 115.076C305.523 120.739 278.297 126.516 269.449 124.817C265.138 124.024 263.891 122.778 262.87 118.587C262.529 116.888 260.374 113.376 258.105 110.658C250.958 102.162 249.143 96.838 249.143 85.2837C249.257 72.8233 251.866 66.7063 260.487 57.984C271.491 46.9962 285.557 42.9182 299.17 46.8829ZM123.566 49.1484C129.011 52.8865 130.032 56.8512 129.918 73.956C129.805 89.475 128.67 95.8185 124.7 103.181C121.183 109.865 115.625 111.904 100.878 111.904C94.4117 111.904 88.5128 111.451 87.6053 110.884C85.5634 109.638 84.429 99.2168 82.3871 64.1009L81.9333 55.2654L85.5634 53.4529C95.8864 48.0156 118.347 45.5236 123.566 49.1484Z" fill="#433650"/>
<path d="M696.096 14.7123C685.773 17.2043 672.954 21.7354 666.601 25.0204C634.271 41.7854 611.81 71.6905 604.777 107.599C603.302 114.849 599.558 119.38 592.185 122.665C587.194 124.931 586.286 128.329 590.37 129.575C591.731 130.028 594.907 131.727 597.403 133.426C601.941 136.598 601.941 136.598 603.983 148.832C606.251 162.085 606.932 165.031 611.243 176.472C619.524 198.674 636.086 219.743 655.825 233.563C667.736 241.946 687.588 251.121 693.827 251.234C695.075 251.234 697.57 252.027 699.385 252.933C704.036 255.426 746.009 255.426 750.66 252.933C752.475 252.027 754.744 251.234 755.651 251.234C761.777 251.121 785.94 239.68 796.717 231.751C821.446 213.287 836.988 188.026 842.433 157.215C845.722 138.524 844.928 136.258 833.811 131.048C828.707 128.555 825.757 125.384 827.912 124.704C831.656 123.458 840.277 116.548 840.504 114.622C841.525 107.826 832.11 92.4202 824.736 88.5688C813.279 82.6784 807.834 82.6784 779.474 88.0024C775.39 88.7953 769.604 89.8148 766.428 90.3812C763.365 90.9476 757.693 91.9671 753.95 92.76C750.206 93.4396 744.307 94.4591 740.904 95.0255C713.565 99.1035 709.935 100.576 705.511 109.638C702.675 115.529 699.385 119.267 693.373 123.458C688.609 126.743 690.877 127.989 711.864 133.54C714.246 134.219 720.145 135.239 724.909 135.805C742.266 137.957 749.526 138.977 753.383 140.223C755.538 140.789 759.281 141.356 761.664 141.356C775.73 141.356 757.353 156.761 740.11 159.367C723.661 161.972 708.687 156.422 694.621 142.602C688.155 136.258 684.071 133.313 679.08 131.274C672.84 128.782 670.685 127.196 670.572 125.384C670.572 125.044 672.614 123.685 675.109 122.212C681.348 118.7 684.184 114.736 684.184 109.412C684.184 94.4591 695.075 75.6552 708.574 67.1594C719.464 60.3628 724.002 59.2301 740.337 59.3433C753.723 59.4566 755.651 59.7964 761.891 62.6284C769.491 66.0267 777.772 66.7063 782.31 64.3275C789.683 60.3628 792.292 48.4687 787.414 41.3323C782.196 33.7428 763.365 22.0753 749.412 17.7707C745.102 16.4114 740.337 14.9388 738.862 14.3724C735.459 13.0131 701.881 13.3529 696.096 14.7123Z" fill="#433650"/>
</svg>
