<svg width="26" height="34" viewBox="0 0 26 34" fill="none" xmlns="http://www.w3.org/2000/svg">
<path d="M23.6548 16.3412H22.4949V10.6127H22.4808C22.4841 10.5161 22.4949 10.4219 22.4949 10.325C22.4949 5.10543 18.208 0.873291 12.9186 0.873291C7.6344 0.873291 3.34753 5.10543 3.34753 10.325C3.34753 10.4219 3.35599 10.5161 3.35881 10.6127H3.34753V16.3412H2.18475C1.22407 16.3412 0.444809 17.11 0.444809 18.0589V31.8091C0.444809 32.758 1.2236 33.5268 2.18475 33.5268H23.6548C24.616 33.5268 25.3948 32.758 25.3948 31.8091V18.0589C25.3952 17.11 24.616 16.3412 23.6548 16.3412ZM17.8527 10.6127V16.3412H7.98737V10.6127H8.00429C7.99865 10.5161 7.98737 10.4219 7.98737 10.325C7.98737 7.63655 10.1954 5.45668 12.9186 5.45668C15.6418 5.45668 17.8527 7.63655 17.8527 10.325C17.8527 10.4219 17.8442 10.5161 17.839 10.6127H17.8527Z" fill="#433650"/>
</svg>
