<svg width="32" height="32" viewBox="0 0 32 32" fill="none" xmlns="http://www.w3.org/2000/svg">
<path fill-rule="evenodd" clip-rule="evenodd" d="M25.2291 14.5001H9.22607C8.39807 14.5001 7.72607 15.1721 7.72607 16.0001C7.72607 16.8281 8.39807 17.5001 9.22607 17.5001H25.2641L22.1501 20.6141C21.5651 21.1991 21.5651 22.1501 22.1501 22.7351C22.7361 23.3211 23.6861 23.3211 24.2721 22.7351C24.2721 22.7351 26.8391 20.1681 28.5141 18.4931C29.8811 17.1261 29.8811 14.9101 28.5141 13.5431L24.2721 9.30008C23.6861 8.71508 22.7361 8.71508 22.1501 9.30008C21.5651 9.88608 21.5651 10.8361 22.1501 11.4221L25.2291 14.5001Z" fill="#433650"/>
<path fill-rule="evenodd" clip-rule="evenodd" d="M20 24V19.5H9.226C7.294 19.5 5.726 17.932 5.726 16C5.726 14.068 7.294 12.5 9.226 12.5H20V8C20 5.239 17.761 3 15 3C12.834 3 10.166 3 8 3C6.674 3 5.402 3.527 4.464 4.464C3.527 5.402 3 6.674 3 8C3 12.439 3 19.561 3 24C3 25.326 3.527 26.598 4.464 27.536C5.402 28.473 6.674 29 8 29C10.166 29 12.834 29 15 29C16.326 29 17.598 28.473 18.536 27.536C19.473 26.598 20 25.326 20 24Z" fill="#433650"/>
</svg>
