<svg width="42" height="50" viewBox="0 0 42 50" fill="none" xmlns="http://www.w3.org/2000/svg">
<path d="M24.0968 0.119488C22.8257 0.307053 21.5172 0.719704 20.1714 1.36994C17.8161 2.49534 16.2085 3.94587 15.0745 5.9841C12.7566 10.1106 13.0681 16.738 15.872 23.4654C16.9188 25.9663 18.0404 27.4794 19.6729 28.5673C21.0686 29.4926 22.3272 29.9177 24.3336 30.1303C25.343 30.2304 25.7044 30.3304 26.2652 30.643C27.1998 31.1682 28.6454 32.156 28.9071 32.4562C29.0317 32.5812 30.1657 35.3572 31.4368 38.6209C33.9167 45.0232 33.979 45.1232 34.8389 45.1232C35.4495 45.1232 40.4218 43.185 40.8704 42.7724C41.5558 42.1347 41.5682 42.1722 39.0385 35.6698C36.3592 28.8048 36.4963 29.4801 37.2689 26.8666C37.6552 25.5412 37.7425 25.3786 38.3406 24.7409C39.6117 23.4029 40.5464 21.7648 40.9078 20.2017C41.1695 19.0888 41.1445 17.1381 40.8579 15.9252C40.0479 12.6115 37.6926 7.95982 35.4121 5.22133C32.1222 1.2574 28.2466 -0.493237 24.0968 0.119488ZM29.2311 10.4357C30.2405 10.8484 30.7763 11.6612 30.7763 12.749C30.7763 14.0995 29.8791 15.0999 28.5831 15.2124C27.6733 15.2875 27.125 15.0749 26.5269 14.4247C25.9785 13.8244 25.829 13.3243 25.9162 12.3489C26.0658 10.8484 27.8104 9.83549 29.2311 10.4357ZM34.0164 29.0299L33.9665 30.1803L36.0352 35.5073C37.1692 38.4333 38.1039 40.8842 38.1039 40.9592C38.1039 41.0718 35.7486 42.0596 35.6863 41.9721C35.6613 41.9471 34.7018 39.4962 33.5553 36.5076L31.4493 31.0807L30.6019 30.3179L29.7669 29.5676L31.225 29.0549C32.0225 28.7673 32.9696 28.3922 33.3061 28.2046C33.655 28.0296 33.9665 27.8795 34.0039 27.867C34.0413 27.867 34.0538 28.3922 34.0164 29.0299Z" fill="#433650"/>
<path d="M12.607 4.17089C11.3858 4.38347 10.9247 4.54603 9.69099 5.18376C5.39167 7.38456 2.03945 12.724 0.344649 20.0516C-0.365673 23.0652 0.0206425 25.5911 1.51606 27.8419C2.01453 28.6047 3.16101 29.8051 3.97103 30.4304C4.3075 30.693 5.0552 32.3186 5.51629 33.7941C5.77799 34.5944 5.77799 34.6944 5.61598 35.3572C5.51629 35.7448 4.79351 38.4958 4.00841 41.4844C3.22332 44.4604 2.58777 47.0989 2.58777 47.324C2.58777 47.6116 2.69993 47.8617 2.9367 48.1243C3.23578 48.4619 3.58471 48.5869 6.10199 49.2497C7.65972 49.6623 9.05544 49.9999 9.21744 49.9999C9.67853 49.9999 10.2767 49.5623 10.4262 49.0996C10.501 48.8745 11.2612 46.0235 12.1086 42.7598L13.6663 36.8327L14.2022 36.2825C14.9872 35.4697 16.9562 33.9942 17.2553 33.9942C17.8036 33.9942 19.9097 33.3814 20.6698 32.9938C21.5297 32.5561 22.6512 31.7809 22.6512 31.6183C22.6512 31.5683 22.4394 31.4808 22.1902 31.4307C19.9346 31.0181 17.2927 29.1549 15.8471 26.9791C14.7754 25.341 13.3921 21.8898 12.6943 19.0513C12.0961 16.6004 11.9964 15.7876 12.0089 12.7365C12.0089 9.97299 12.0338 9.7229 12.3329 8.61C12.769 6.98441 13.0806 6.22163 13.7411 5.05872C14.0526 4.50851 14.3018 4.04585 14.3018 4.02084C14.3018 3.94581 13.4669 4.00834 12.607 4.17089ZM10.3265 33.3564C11.1116 33.5565 11.959 33.7566 12.2207 33.8066L12.6943 33.8816L11.9466 34.6819C11.3858 35.2821 11.1615 35.6448 11.0244 36.1449C10.7752 37.0203 8.19557 46.8238 8.19557 46.8988C8.19557 46.9363 7.62233 46.7988 6.92447 46.6112C6.21415 46.4362 5.64091 46.2236 5.65337 46.1736C5.66583 46.111 6.32631 43.5226 7.13632 40.409L8.60681 34.7694L8.3825 33.8441C8.27034 33.3439 8.13326 32.8563 8.10834 32.7812C8.05849 32.6562 8.14573 32.6687 8.46973 32.7937C8.70651 32.8938 9.54145 33.1439 10.3265 33.3564Z" fill="#433650"/>
</svg>
