<svg width="41" height="192" viewBox="0 0 41 192" fill="none" xmlns="http://www.w3.org/2000/svg">
<rect x="1.5" y="1.5" width="38" height="189" rx="16.5" fill="#C84D46" stroke="#433650" stroke-width="3"/>
<path d="M32.5312 55.7623C32.5312 58.1785 30.5725 60.1373 28.1562 60.1373C25.74 60.1373 23.7812 58.1785 23.7813 55.7623L23.7813 29.2574C23.7813 26.8411 25.74 24.8824 28.1563 24.8824C30.5725 24.8824 32.5313 26.8411 32.5313 29.2574L32.5312 55.7623Z" fill="white"/>
<path d="M32.5312 16.9804C32.5312 19.3303 30.6263 21.2353 28.2764 21.2353H28.0361C25.6862 21.2353 23.7812 19.3303 23.7813 16.9804C23.7813 14.6305 25.6862 12.7255 28.0361 12.7255H28.2764C30.6263 12.7255 32.5313 14.6305 32.5312 16.9804Z" fill="white"/>
</svg>
