<svg width="36" height="36" viewBox="0 0 36 36" fill="none" xmlns="http://www.w3.org/2000/svg">
<path fill-rule="evenodd" clip-rule="evenodd" d="M21.4182 3.22836C20.8627 3 20.1585 3 18.75 3C17.3415 3 16.6372 3 16.0818 3.22836C15.3411 3.53285 14.7526 4.11687 14.4458 4.85195C14.3058 5.18751 14.251 5.57775 14.2295 6.14699C14.198 6.98352 13.7657 7.75784 13.0353 8.1764C12.3048 8.59494 11.413 8.57931 10.6672 8.18814C10.1598 7.92195 9.79183 7.77393 9.42898 7.72653C8.63413 7.62267 7.83027 7.83644 7.19424 8.3208C6.71721 8.68407 6.36508 9.28935 5.66085 10.4999C4.95661 11.7105 4.6045 12.3157 4.52602 12.9074C4.42137 13.6962 4.63677 14.494 5.12482 15.1253C5.34759 15.4134 5.66065 15.6555 6.14655 15.9585C6.86086 16.404 7.32048 17.1629 7.32043 18C7.32039 18.8372 6.86079 19.5959 6.14655 20.0412C5.66058 20.3444 5.34745 20.5866 5.12467 20.8748C4.63662 21.506 4.42123 22.3037 4.52587 23.0925C4.60435 23.6841 4.95648 24.2895 5.6607 25.5C6.36493 26.7105 6.71706 27.3159 7.19409 27.6791C7.83012 28.1634 8.63398 28.3772 9.42883 28.2734C9.79167 28.226 10.1596 28.0779 10.667 27.8118C11.4128 27.4206 12.3046 27.405 13.0352 27.8235C13.7657 28.2422 14.198 29.0165 14.2295 29.8532C14.251 30.4223 14.3058 30.8126 14.4458 31.1481C14.7526 31.8831 15.3411 32.4672 16.0818 32.7717C16.6372 33 17.3415 33 18.75 33C20.1585 33 20.8627 33 21.4182 32.7717C22.1589 32.4672 22.7473 31.8831 23.0541 31.1481C23.1942 30.8126 23.2491 30.4223 23.2705 29.853C23.302 29.0165 23.7342 28.2422 24.4647 27.8235C25.1952 27.4049 26.0871 27.4206 26.8329 27.8118C27.3403 28.0779 27.7081 28.2258 28.071 28.2732C28.8658 28.3772 29.6697 28.1634 30.3057 27.6791C30.7828 27.3158 31.1349 26.7105 31.8391 25.4999C32.5434 24.2894 32.8954 23.6841 32.974 23.0925C33.0786 22.3037 32.8632 21.5058 32.3752 20.8746C32.1523 20.5865 31.8393 20.3442 31.3533 20.0412C30.6391 19.5959 30.1795 18.837 30.1795 17.9999C30.1795 17.1627 30.6391 16.4042 31.3533 15.9588C31.8394 15.6557 32.1525 15.4136 32.3754 15.1253C32.8633 14.4941 33.0787 13.6963 32.9742 12.9075C32.8956 12.3158 32.5435 11.7105 31.8393 10.5C31.135 9.28946 30.783 8.68418 30.3058 8.32091C29.6698 7.83654 28.866 7.62278 28.0711 7.72664C27.7083 7.77404 27.3403 7.92204 26.833 8.1882C26.0872 8.57939 25.1953 8.59503 24.4648 8.17644C23.7343 7.75787 23.302 6.98349 23.2704 6.14691C23.2489 5.57772 23.1942 5.1875 23.0541 4.85195C22.7473 4.11687 22.1589 3.53285 21.4182 3.22836ZM18.75 22.5C21.2542 22.5 23.2842 20.4854 23.2842 18C23.2842 15.5147 21.2542 13.5 18.75 13.5C16.2457 13.5 14.2157 15.5147 14.2157 18C14.2157 20.4854 16.2457 22.5 18.75 22.5Z" fill="#433650"/>
</svg>
