<svg width="33" height="41" viewBox="0 0 33 41" fill="none" xmlns="http://www.w3.org/2000/svg">
<g clip-path="url(#clip0_154_148)">
<path d="M28.7784 27.5042C26.9917 28.6753 25.025 29.5993 22.9288 30.225C20.8915 30.8328 18.7326 31.1601 16.4996 31.1601C14.2666 31.1601 12.1081 30.8332 10.0708 30.225C7.96411 29.5962 5.9876 28.6656 4.1935 27.4856C4.05007 27.3915 3.97251 27.2353 3.97212 27.0761L3.97095 23.5476C3.97095 21.4487 4.83467 19.5407 6.22575 18.1581L6.25498 18.131C7.6445 16.7642 9.55241 15.9169 11.6482 15.9169H21.3514C23.4632 15.9169 25.3832 16.7754 26.7743 18.1581C28.1653 19.5407 29.0291 21.4487 29.0291 23.5476V27.0761C29.0291 27.2594 28.9281 27.4194 28.7784 27.5042ZM16.4996 1.63953C18.3561 1.63953 20.0383 2.38838 21.2587 3.60057C22.4775 4.81353 23.2305 6.4848 23.2305 8.32962C23.2305 10.1771 22.4767 11.8504 21.2591 13.0606C20.0414 14.2709 18.358 15.0201 16.4996 15.0201C14.6412 15.0201 12.9578 14.2709 11.7402 13.0606C10.5225 11.8504 9.76873 10.1771 9.76873 8.32962C9.76873 6.48441 10.5221 4.81237 11.7417 3.59941C12.9621 2.38799 14.6435 1.63953 16.4996 1.63953Z" fill="#433650"/>
</g>
<defs>
<clipPath id="clip0_154_148">
<rect width="33" height="41" fill="white"/>
</clipPath>
</defs>
</svg>
